<?xml version="1.0" standalone="no"?>
<!DOCTYPE svg PUBLIC "-//W3C//DTD SVG 20010904//EN"
 "http://www.w3.org/TR/2001/REC-SVG-20010904/DTD/svg10.dtd">
<svg version="1.0" xmlns="http://www.w3.org/2000/svg"
 width="485.000000pt" height="485.000000pt" viewBox="0 0 485.000000 485.000000"
 preserveAspectRatio="xMidYMid meet">

<g transform="translate(0.000000,485.000000) scale(0.100000,-0.100000)"
fill="#000000" stroke="none">
<path d="M2264 4490 c-91 -17 -217 -61 -304 -107 -93 -49 -154 -93 -245 -178
l-59 -56 56 -56 56 -56 64 57 c196 179 395 254 645 243 221 -9 374 -72 550
-226 l85 -74 55 55 55 55 -58 58 c-129 128 -280 214 -469 267 -80 22 -344 33
-431 18z"/>
<path d="M2322 4180 c-141 -26 -273 -93 -379 -194 l-66 -62 59 -56 58 -56 67
62 c67 62 156 113 239 137 25 7 88 13 140 13 149 0 269 -49 387 -158 l60 -55
57 58 57 58 -59 54 c-103 96 -197 149 -327 185 -65 18 -225 26 -293 14z"/>
<path d="M2323 3856 c-62 -20 -122 -59 -173 -110 l-44 -46 55 -56 56 -56 44
42 c56 53 88 70 149 77 75 9 133 -12 197 -70 l54 -50 57 56 57 57 -50 50 c-28
28 -79 65 -114 83 -55 27 -76 32 -155 34 -57 2 -107 -2 -133 -11z"/>
<path d="M2360 3480 l0 -80 80 0 80 0 0 80 0 80 -80 0 -80 0 0 -80z"/>
<path d="M1709 3220 c-81 -43 -185 -186 -256 -355 l-36 -84 -30 25 c-27 23
-36 25 -121 22 l-91 -3 -3 -77 -3 -78 63 0 c103 0 102 -8 -20 -98 -60 -44
-112 -88 -115 -96 -6 -14 -67 -16 -552 -16 l-545 0 0 -80 0 -80 510 0 511 0
-1 -301 -1 -301 -510 -764 -509 -764 0 -86 0 -85 42 3 42 3 473 710 c261 390
477 713 483 719 5 5 19 -3 34 -20 24 -28 25 -35 26 -148 0 -142 16 -183 86
-217 40 -19 58 -20 243 -17 183 3 202 5 227 24 60 44 69 67 72 185 l4 109 706
-2 707 -3 5 -107 c6 -118 16 -142 80 -185 31 -22 42 -23 228 -23 175 0 200 2
237 20 69 33 85 75 85 215 0 110 1 118 26 151 l27 35 481 -723 c425 -639 484
-723 509 -726 l27 -3 0 108 0 108 -495 742 -495 743 0 300 0 300 495 0 495 0
0 80 0 80 -528 0 -528 0 -33 34 c-17 18 -72 62 -121 97 -50 35 -90 67 -90 72
0 4 27 7 60 7 l60 0 0 80 0 80 -91 0 c-50 0 -98 -4 -108 -10 -16 -8 -26 7 -84
123 -74 148 -148 241 -220 276 -43 21 -54 21 -733 21 -658 -1 -691 -2 -725
-20z m1415 -162 c46 -41 191 -308 175 -322 -2 -2 -56 0 -119 5 -279 19 -721
31 -920 25 -252 -8 -577 -24 -637 -32 -33 -4 -43 -2 -43 9 0 27 107 232 149
285 l41 52 665 0 664 0 25 -22z m-319 -458 c121 -5 305 -15 408 -21 l188 -12
82 -59 c125 -90 127 -83 -29 -97 -164 -14 -228 -27 -273 -53 -33 -18 -40 -19
-170 -6 -185 18 -957 18 -1142 0 -130 -13 -137 -12 -170 7 -43 25 -118 39
-286 54 l-132 12 99 71 99 71 198 13 c475 30 780 35 1128 20z m-1359 -350 c61
-6 124 -15 140 -19 29 -9 29 -9 -28 -35 -107 -50 -212 -45 -317 16 -40 22 -50
32 -40 39 19 12 110 11 245 -1z m2231 2 c18 -11 -59 -59 -126 -79 -72 -21
-153 -13 -228 22 l-58 28 32 8 c75 21 356 36 380 21z m-712 -63 c66 -5 122
-12 124 -15 14 -13 -37 -85 -131 -187 -21 -23 -38 -45 -38 -50 0 -5 -7 -6 -16
-3 -8 3 -12 2 -9 -4 13 -21 -66 -25 -467 -25 -327 0 -420 3 -430 13 -10 10
-10 15 2 22 12 7 10 9 -7 7 -12 0 -19 -5 -17 -9 12 -19 -16 -6 -30 14 -12 16
-13 26 -4 42 10 19 10 20 -6 7 -14 -12 -19 -11 -36 4 -19 17 -19 20 -4 43 9
13 11 21 5 18 -11 -7 -15 5 -12 34 2 13 0 13 -8 1 -6 -9 -6 -22 -1 -32 16 -28
-2 -30 -31 -3 -17 16 -25 32 -22 42 4 9 2 13 -4 9 -10 -6 -40 49 -32 58 4 3
104 11 359 29 99 7 692 -4 815 -15z m-1665 -174 c87 -23 192 -16 284 19 38 15
70 25 71 24 21 -37 54 -81 123 -162 68 -78 97 -104 141 -125 l56 -26 465 0
465 0 53 24 c42 19 71 44 136 120 65 76 117 143 131 168 0 1 32 -9 70 -23 123
-45 246 -43 363 7 l42 18 0 -119 0 -120 -195 0 -195 0 0 -80 0 -80 195 0 195
0 0 -56 c0 -30 -5 -64 -10 -75 -11 -19 -35 -19 -1248 -19 -950 0 -1241 3
-1250 12 -7 7 -12 39 -12 75 l0 63 195 0 195 0 0 80 0 80 -195 0 -195 0 0 120
0 121 28 -15 c15 -8 57 -22 92 -31z m266 -700 c15 -59 -14 -150 -36 -115 -5 8
-10 11 -10 5 0 -6 -49 -10 -128 -10 l-127 0 -3 73 -3 72 150 0 151 0 6 -25z
m2054 -44 c0 -39 -4 -73 -10 -76 -5 -3 -10 -1 -10 6 0 10 -3 10 -12 1 -16 -16
-258 -17 -258 -1 0 5 -4 7 -10 4 -6 -4 -10 20 -10 64 l0 71 155 0 155 0 0 -69z"/>
<path d="M3057 2150 c-3 -11 -3 -20 -1 -20 2 0 8 9 14 20 6 11 7 20 2 20 -6 0
-12 -9 -15 -20z"/>
<path d="M3030 2100 c-13 -11 -19 -20 -13 -20 5 0 18 9 28 20 10 11 16 20 13
20 -3 0 -15 -9 -28 -20z"/>
<path d="M1899 2018 c14 -19 32 -15 30 5 0 8 -2 8 -6 -1 -4 -10 -8 -10 -21 0
-15 12 -16 11 -3 -4z"/>
<path d="M1955 1994 c-9 -15 -12 -23 -6 -20 11 7 35 46 28 46 -3 0 -12 -12
-22 -26z"/>
<path d="M1280 1322 c0 -10 36 -9 46 1 4 4 -5 7 -19 7 -15 0 -27 -4 -27 -8z"/>
<path d="M1387 1323 c18 -2 50 -2 70 0 21 2 7 4 -32 4 -38 0 -55 -2 -38 -4z"/>
<path d="M3320 1320 c0 -5 7 -7 15 -4 8 4 15 8 15 10 0 2 -7 4 -15 4 -8 0 -15
-4 -15 -10z"/>
<path d="M3373 1323 c9 -2 23 -2 30 0 6 3 -1 5 -18 5 -16 0 -22 -2 -12 -5z"/>
<path d="M3505 1323 c55 -3 92 -8 97 -16 5 -8 8 -6 8 6 0 15 -10 17 -97 15
l-98 -2 90 -3z"/>
<path d="M1988 872 l-78 -3 0 -40 0 -40 -67 3 -68 3 -3 38 -3 37 -80 0 -79 0
0 -40 0 -40 -65 0 -65 0 0 40 0 40 -79 0 -80 0 -3 -37 -3 -38 -67 -3 -68 -3 0
41 0 41 -67 -3 -68 -3 -28 -52 -28 -52 31 -16 c16 -8 30 -20 30 -25 0 -7 -50
-97 -66 -119 -2 -2 -19 6 -38 18 l-34 22 -41 -68 c-44 -74 -45 -66 11 -106 16
-11 15 -16 -17 -66 -44 -69 -39 -66 -78 -43 l-33 21 -37 -64 c-37 -64 -44 -85
-29 -85 4 0 18 -9 31 -19 l24 -19 -37 -56 c-20 -31 -39 -56 -42 -56 -3 0 -19
7 -36 16 -34 18 -35 17 -71 -46 l-26 -45 1907 0 1907 0 -28 53 c-16 28 -32 52
-35 52 -4 -1 -18 -7 -32 -15 -39 -22 -47 -19 -79 42 -32 59 -30 75 10 88 26 9
24 21 -19 92 l-38 62 -34 -21 -34 -20 -16 22 c-8 13 -25 40 -38 61 l-23 38 35
23 34 24 -38 62 c-20 34 -40 65 -43 68 -3 4 -20 -4 -37 -16 -17 -12 -32 -21
-34 -19 -13 17 -76 122 -74 124 2 1 18 10 36 19 l33 17 -30 52 -30 52 -65 3
-66 3 0 -41 0 -41 -67 3 -68 3 -3 38 -3 37 -80 0 -79 0 0 -40 0 -41 -67 3 -68
3 -3 37 -3 36 -63 4 c-92 5 -96 3 -96 -43 l0 -39 -65 0 -65 0 0 40 0 40 -82 0
-83 0 0 -37 0 -38 -67 -3 -68 -3 0 41 0 40 -52 1 c-29 0 -65 2 -80 3 -27 2
-28 -1 -28 -41 l0 -43 -70 0 -70 0 0 40 0 40 -80 0 -80 0 0 -40 0 -40 -69 0
-70 0 -3 43 -3 42 -77 -3z"/>
</g>
</svg>
